{"title":"Gangster Squad 2013 720p WEB-DL x264-SSDD (HQ)","uid":8336326,"size":2360841530,"categoryP":"video","categoryS":"hd___movies","magnet":"?xt=urn:btih:3978b85ce3e17985f3bf5bcdc3ec1e8e2fca0f17&amp;dn=Gangster+Squad+2013+720p+WEB-DL+x264-SSDD+%28HQ%29&amp;tr=udp%3A%2F%2Ftracker.openbittorrent.com%3A80&amp;tr=udp%3A%2F%2Fopen.demonii.com%3A1337&amp;tr=udp%3A%2F%2Ftracker.coppersurfer.tk%3A6969&amp;tr=udp%3A%2F%2Fexodus.desync.com%3A6969","seeders":1,"leechers":0,"uploader":"Gh0stNet","files":2,"time":1364994820,"description":"Source - Gangster.Squad.2013.720p.WEB-DL.H264-IRONCLUB 3.28GB (Thumbs Up + Respect)\n\nNOTES - Just to prove we can play with the big boys  and appologies did say was gonna have 6 channel audio but the web download only has 2 channel but never mind  enjoy.\n\nGeneral\nComplete name                            : Gangster Squad 2013 720p WEB-DL x264-SSDD (HQ).mp4\nFormat                                   : MPEG-4\nFormat profile                           : Base Media\nCodec ID                                 : isom\nFile size                                : 2.20 GiB\nDuration                                 : 1h 52mn\nOverall bit rate mode                    : Variable\nOverall bit rate                         : 2 789 Kbps\n\nVideo\nID                                       : 1\nFormat                                   : AVC\nFormat/Info                              : Advanced Video Codec\nFormat profile                           : &lt;a class=&quot;__cf_email__&quot; href=&quot;/cdn-cgi/l/email-protection&quot; data-cfemail=&quot;5c14353b341c1068726d&quot;&gt;[email&amp;#160;protected]&lt;/a&gt;&lt;script cf-hash='f9e31' type=&quot;text/javascript&quot;&gt;\n/* &lt;![CDATA[ */!function(){try{var t=&quot;currentScript&quot;in document?document.currentScript:function(){for(var t=document.getElementsByTagName(&quot;script&quot;),e=t.length;e--;)if(t[e].getAttribute(&quot;cf-hash&quot;))return t[e]}();if(t&amp;&amp;t.previousSibling){var e,r,n,i,c=t.previousSibling,a=c.getAttribute(&quot;data-cfemail&quot;);if(a){for(e=&quot;&quot;,r=parseInt(a.substr(0,2),16),n=2;a.length-n;n+=2)i=parseInt(a.substr(n,2),16)^r,e+=String.fromCharCode(i);e=document.createTextNode(e),c.parentNode.replaceChild(e,c)}}}catch(u){}}();/* ]]&gt; */&lt;/script&gt;\nFormat settings, CABAC                   : Yes\nFormat settings, ReFrames                : 4 frames\nCodec ID                                 : avc1\nCodec ID/Info                            : Advanced Video Coding\nDuration                                 : 1h 52mn\nBit rate                                 : 2 529 Kbps\nMaximum bit rate                         : 9 192 Kbps\nWidth                                    : 1 280 pixels\nHeight                                   : 532 pixels\nDisplay aspect ratio                     : 2.40:1\nFrame rate mode                          : Constant\nFrame rate                               : 23.976 fps\nColor space                              : YUV\nChroma subsampling                       : 4:2:0\nBit depth                                : 8 bits\nScan type                                : Progressive\nBits/(Pixel*Frame)                       : 0.155\nStream size                              : 1.99 GiB (91%)\nWriting library                          : x264 core 130 r2273 b3065e6\n\nAudio\nID                                       : 2\nFormat                                   : AAC\nFormat/Info                              : Advanced Audio Codec\nFormat profile                           : LC\nCodec ID                                 : 40\nDuration                                 : 1h 52mn\nBit rate mode                            : Variable\nBit rate                                 : 256 Kbps\nMaximum bit rate                         : 262 Kbps\nChannel(s)                               : 2 channels\nChannel positions                        : Front: L R\nSampling rate                            : 48.0 KHz\nCompression mode                         : Lossy\nStream size                              : 207 MiB (9%)\n\nScreens: &lt;a href=&quot;\nhttp://i.imgur.com/SXqwats.png&quot; rel=&quot;nofollow&quot; target=&quot;_NEW&quot;&gt;\nhttp://i.imgur.com/SXqwats.png&lt;/a&gt; &lt;a href=&quot;\nhttp://i.imgur.com/llJ6l0y.png&quot; rel=&quot;nofollow&quot; target=&quot;_NEW&quot;&gt;\nhttp://i.imgur.com/llJ6l0y.png&lt;/a&gt; &lt;a href=&quot;\nhttp://i.imgur.com/O4YZ0Vs.png&quot; rel=&quot;nofollow&quot; target=&quot;_NEW&quot;&gt;\nhttp://i.imgur.com/O4YZ0Vs.png&lt;/a&gt; &lt;a href=&quot;\nhttp://i.imgur.com/7Z2P9zE.jpg&quot; rel=&quot;nofollow&quot; target=&quot;_NEW&quot;&gt;\nhttp://i.imgur.com/7Z2P9zE.jpg&lt;/a&gt;\n","torrent":{"xt":"urn:btih:3978b85ce3e17985f3bf5bcdc3ec1e8e2fca0f17","amp;dn":"Gangster+Squad+2013+720p+WEB-DL+x264-SSDD+%28HQ%29","amp;tr":["udp%3A%2F%2Ftracker.openbittorrent.com%3A80","udp%3A%2F%2Fopen.demonii.com%3A1337","udp%3A%2F%2Ftracker.coppersurfer.tk%3A6969","udp%3A%2F%2Fexodus.desync.com%3A6969"],"infoHash":"3978b85ce3e17985f3bf5bcdc3ec1e8e2fca0f17","infoHashBuffer":{"type":"Buffer","data":[57,120,184,92,227,225,121,133,243,191,91,205,195,236,30,142,47,202,15,23]},"announce":[],"urlList":[]}}